<?xml version="1.0" encoding="UTF-8"?>
<svg id="Camada_1" data-name="Camada 1" xmlns="http://www.w3.org/2000/svg" viewBox="0 0 2994.56 519.53">
  <defs>
    <style>
      .cls-1 {
        fill: #5f5f5f;
        stroke-width: 0px;
      }
    </style>
  </defs>
  <path class="cls-1" d="m130.17,215.45c.42,1.38.85,2.76,1.58,5.14.84-5.89,1.68-10.8,2.89-15.64,6.22-24.89,18.22-46.68,35.11-65.88,24.84-28.25,55.12-47.58,92.41-54.07,50.63-8.81,96.97,1.09,137.19,34.47,3.33,2.76,6.38,5.86,9.62,8.73,1.97,1.75,2.21,3.21.11,5.17-4.25,3.97-8.41,8.06-12.39,12.3-1.85,1.98-2.89,1.69-4.73-.07-18.62-17.91-40.29-30.64-65.72-35.64-49.07-9.64-92.84.68-129.43,36.25-20.44,19.88-34.76,43.33-39.74,71.55-10.58,59.93,8.36,108.58,57.62,144.71,23.19,17,49.62,24.32,78.37,24.57,31.18.28,59.34-8.19,84.39-26.77,5.07-3.76,10.07-7.65,14.38-12.3,1.62-1.74,3.02-1.87,4.67-.16,4.46,4.64,8.97,9.23,13.4,13.9,1.58,1.67.36,2.89-.88,4.06-24.83,23.3-53.5,38.87-87.51,43.96-33.02,4.94-64.87,1.32-95.46-12.32-21.3-9.49-39.07-23.76-54.64-40.86-18.96-20.83-31.86-44.92-37.92-72.54-.96-4.37-1.11-8.81-1.21-14.21-.92,3.28-.64,5.93-2.13,8.07,0-20.81,0-41.61,0-62.42Z"/>
  <path class="cls-1" d="m2056.06,229.31c-2.73,3.71-3.47,7.88-4.83,11.84-18.23,53.15-36.44,106.31-54.65,159.48-.64,1.87-1.27,3.75-1.85,5.64-1.72,5.52-1.71,5.56-7.37,5.56-22.91.02-45.82-.09-68.73.1-4.23.04-5.96-1.51-7.29-5.43-18.19-53.56-36.56-107.06-54.88-160.57-1.88-5.49-3.72-10.99-5.58-16.48-.33.02-.65.04-.98.06,0,1.34,0,2.68,0,4.01.02,56.84.04,113.69.06,170.53,0,1.61,0,3.22-.04,4.83-.04,1.95-1.02,2.97-3.01,2.95-.87,0-1.73.01-2.6.01-28.11,0-56.23,0-84.34,0-5.63,0-5.6,0-5.6-5.49,0-109.85,0-219.7,0-329.55,0-5.03-.02-5.01,4.84-5.01,34.92,0,69.85.07,104.77-.07,3.96-.02,5.83,1.2,7.29,4.99,26.77,69.68,53.7,139.29,80.6,208.92.04.12.07.24.13.35.65,1,.47,2.88,1.84,2.95,1.49.08,1.48-1.77,1.88-2.82,5.97-15.61,11.89-31.23,17.76-46.87,14.84-39.51,30.04-78.89,44.57-118.52,5.66-15.45,12.1-30.61,17.41-46.2.81-2.39,2.5-2.73,4.64-2.72,8.67.04,17.34.01,26.01.01,26.5,0,53.01,0,79.51,0,5.14,0,5.25.11,5.25,5.16.02,109.73.03,219.45.04,329.18,0,5.74-.01,5.71-5.66,5.7-27.74-.02-55.48,0-83.22-.02-5.99,0-5.99-.02-5.99-6.16,0-57.34,0-114.68,0-172.02,0-1.45,0-2.9,0-4.35Z"/>
  <path class="cls-1" d="m2582.19,241.44c0-54.6,0-109.2,0-163.8,0-5.8,0-5.82,5.68-5.82,44.94,0,89.89-.36,134.83.12,34.49.37,67.23,8.28,96.88,26.6,35.65,22.03,58.42,53.8,68.53,94.23,10.47,41.88,8.52,83.22-9.07,123.14-16.84,38.2-45.18,64.75-83.45,80.9-20.02,8.45-40.97,12.87-62.63,14.41-7.92.56-15.83.6-23.74.6-40.49.03-80.97.01-121.46,0-5.55,0-5.56-.03-5.56-5.47,0-54.97,0-109.95,0-164.92Zm95.63-.59c0,14.73,0,29.47,0,44.2,0,12.75.1,25.51-.06,38.26-.04,3.3,1.05,4.28,4.28,4.22,9.53-.18,19.07-.11,28.6-.06,7.83.05,15.56-.75,23.22-2.31,28.38-5.78,48.67-21.4,58.36-49.17,5.93-17.01,6.69-34.63,4.07-52.41-5.95-40.46-32.81-63.63-71.58-68.13-13.95-1.62-27.95-.59-41.93-.84-4.94-.09-4.96,0-4.96,4.89,0,27.12,0,54.23,0,81.35Z"/>
  <path class="cls-1" d="m2366.63,414.89c-39.49.06-75.46-11.06-107.02-34.99-33.62-25.49-54.68-59.25-63.21-100.54-8.5-41.17-4.76-81.33,14.28-118.96,25.43-50.27,67.02-80.13,122.1-90.65,39.01-7.45,76.99-2.88,112.98,14.31,31.27,14.94,55.54,37.73,72.7,67.88,13.2,23.19,20.12,48.27,21.95,74.86,2.81,40.69-5.66,78.66-28.38,112.72-26.41,39.6-63.86,62.98-110.32,72.34-11.57,2.33-23.25,3.37-35.09,3.04Zm-76.75-174.02c-.45,10.45.81,20.97,3.79,31.28,6.22,21.54,18.34,38.31,39.28,47.62,13.86,6.16,28.45,7.91,43.55,6.28,29.97-3.23,50.61-18.8,61.25-46.89,8.5-22.44,8.57-45.7,2.84-68.7-5.55-22.3-17.98-39.88-39.63-49.53-13.85-6.18-28.46-7.8-43.56-6.29-26.13,2.62-45.91,14.78-57.83,38.44-7.49,14.86-10.31,30.89-9.7,47.79Z"/>
  <path class="cls-1" d="m1044.44,225.2c.75-4.45.38-8.66.39-12.84.04-10.65.02-21.3-.16-31.95-.05-3.24.77-4.79,4.36-4.63,5.56.25,11.15.21,16.71.04,3.16-.1,4.05,1.2,4.02,4.18-.12,10.53-.04,21.05-.04,31.58,0,64.65,0,129.3,0,193.94q0,6.28-6.3,6.31c-4.83.01-9.67-.14-14.49.05-3.3.13-4.25-1.23-4.22-4.4.16-14.98.14-29.97.18-44.95,0-.48-.05-.97-.1-1.83-1.36.87-1.69,2.08-2.07,3.15-3.14,8.66-8.83,15.25-15.88,21.05-23.56,19.38-50.64,28.21-80.92,26.8-35.13-1.63-63.67-16.78-85.99-43.79-19.11-23.11-27.16-49.88-26.11-79.63,1.98-56.06,44.08-98.38,88.6-108.87,36.88-8.69,71.01-2.29,101.5,20.91,7.99,6.08,15.01,12.94,18.62,22.63.29.77.55,1.66,1.91,2.24Zm-185.76,68.49c-2.48,49.1,42.22,93.35,92.23,93.69,50.7.35,95.33-43.24,94.22-94.72-1.07-49.56-41.55-90.42-89.85-92.26-55-2.1-99.16,45.52-96.6,93.29Z"/>
  <path class="cls-1" d="m706.06,306.23c-33.31,0-66.62,0-99.93,0-5.36,0-5.46.08-4.41,5.48,5.08,26.08,19.36,45.95,41.13,60.73,31.7,21.52,82.53,20.85,114.85-10.75,1.56-1.52,2.6-1.84,4.24-.15,4.3,4.45,8.68,8.83,13.14,13.12,1.93,1.86,1.62,3.12-.21,4.85-18.31,17.26-39.8,27.9-64.78,31.28-70.62,9.55-125.42-41.62-133.25-98.97-3.86-28.31,1.12-54.95,15.67-80.05,8.38-14.45,19.8-25.91,32.78-35.2,13.94-9.97,30.16-16.39,47.52-19.08,25.55-3.96,50.36-1.58,73.35,10.47,35.26,18.48,57.25,47.31,63.91,86.98,1.47,8.77,1.46,17.74,1.78,26.64.13,3.59-1.19,4.72-4.73,4.71-33.68-.1-67.37-.06-101.05-.06v-.03Zm-12.77-24.9c29.59,0,59.18-.04,88.77.06,3.37.01,4.13-.74,3.53-4.24-7.86-45.98-53.36-87.22-113.56-74.34-35.58,7.62-63.92,37.76-70.46,73.83-.84,4.66-.84,4.68,4.07,4.68,29.22,0,58.43,0,87.65,0Z"/>
  <path class="cls-1" d="m1444.85,294.31c2.12,61.31-51.64,117.43-117.1,117.74-63.84.3-118.89-52.81-118.68-118.52.21-65.69,55.07-117.59,117.79-117.93,65.47-.35,120.66,56.44,117.98,118.71Zm-117.79,92.63c48.59,2.15,93.95-40.29,93.72-93.02-.22-50.6-41.26-91.65-90.19-93.53-51.9-2-97.07,41.59-96.98,93.57.09,52.7,45.21,94.93,93.45,92.99Z"/>
  <path class="cls-1" d="m1127.22,281.17c0-25.14,0-50.28,0-75.42,0-4.95-.03-4.97-4.97-4.97-8.79,0-17.59-.09-26.38.06-3.12.05-4.53-.83-4.41-4.19.2-5.81.13-11.64.03-17.46-.04-2.56.94-3.47,3.53-3.43,8.79.12,17.58.07,26.38.06,5.78,0,5.8-.03,5.8-5.64.02-27.49.02-54.98.03-82.48q0-5.53,5.51-5.54c4.71,0,9.42.19,14.11-.06,3.65-.19,4.64,1.27,4.62,4.75-.11,27.74-.06,55.48-.05,83.22,0,5.75,0,5.77,5.66,5.77,8.67,0,17.34.09,26-.07,2.81-.05,4.11.68,4.04,3.69-.14,5.82-.1,11.64,0,17.46.05,2.88-1.18,3.93-4.02,3.9-9.16-.1-18.33.08-27.49-.09-3.29-.06-4.25,1.12-4.25,4.32.08,48.42-.04,96.84.12,145.26.06,18.43,11.13,32.52,27.67,36.16.6.13,1.21.28,1.82.35q6.11.69,6.11,6.98c0,4.33.02,8.67,0,13-.03,4.65-.87,5.38-5.53,4.92-16-1.57-29.34-8.27-39.93-20.49-9.56-11.04-14.45-23.74-14.41-38.37.05-23.9.01-47.8.02-71.7Z"/>
  <path class="cls-1" d="m460.41,205.9c2.85-2.92,5.65-5.84,8.74-8.46,20.46-17.28,44.19-23.53,70.51-21.03,3.81.36,7.57,1.14,11.36,1.74,2.68.42,3.82,1.69,3.16,4.63-1.26,5.67-2.27,11.4-3.3,17.11-.57,3.14-2.43,3-4.95,2.51-17.78-3.47-35.17-2.59-51,7-21.87,13.25-35.12,32.34-35.31,58.55-.33,45.93-.04,91.86-.02,137.79q0,6.15-5.98,6.12c-4.83-.02-9.67-.2-14.48.06-3.69.2-4.61-1.3-4.6-4.76.1-44.82.09-89.63.09-134.45,0-30.7.02-61.41-.08-92.11-.01-3.41.85-4.99,4.57-4.82,5.44.25,10.89.17,16.34.03,3.02-.08,4.2,1.05,4.14,4.13-.14,7.43-.05,14.86,0,22.28,0,1.17-.45,2.47.79,3.68Z"/>
  <path class="cls-1" d="m1491.81,207.35c12.84-14.63,28.28-24.07,46.71-28.69,14.92-3.74,29.86-3.67,44.89-.6,3.21.65,4.02,2.06,3.34,5.11-1.11,4.95-1.94,9.95-2.91,14.93-.94,4.83-1.46,5.1-6.11,4.15-34.7-7.09-63.69,8.56-78.88,37.62-5.14,9.84-6.96,20.64-6.98,31.63-.11,44.83-.04,89.67-.05,134.5q0,5.8-5.66,5.83c-4.71.02-9.42-.19-14.12.07-3.66.2-4.59-1.25-4.58-4.73.11-33.31.06-66.63.06-99.95,0-41.98,0-83.97,0-125.95,0-5.38.02-5.4,5.35-5.41,4.95-.01,9.91.14,14.86-.03,3.03-.1,4.18.96,4.13,4.06-.14,9.13-.05,18.26-.05,27.46Z"/>
</svg>